<svg width="15" height="15" viewBox="0 0 15 15" fill="none" xmlns="http://www.w3.org/2000/svg">
<path d="M13.1875 5.54688L7.9375 10.8125C7.875 10.875 7.80729 10.9192 7.73438 10.945C7.66146 10.9713 7.58333 10.9844 7.5 10.9844C7.41667 10.9844 7.33854 10.9713 7.26562 10.945C7.19271 10.9192 7.125 10.875 7.0625 10.8125L1.79687 5.54688C1.65104 5.40104 1.57813 5.21875 1.57813 5C1.57813 4.78125 1.65625 4.59375 1.8125 4.4375C1.96875 4.28125 2.15104 4.20313 2.35938 4.20313C2.56771 4.20313 2.75 4.28125 2.90625 4.4375L7.5 9.03125L12.0938 4.4375C12.2396 4.29167 12.4192 4.21875 12.6325 4.21875C12.8463 4.21875 13.0313 4.29688 13.1875 4.45313C13.3438 4.60938 13.4219 4.79167 13.4219 5C13.4219 5.20833 13.3438 5.39063 13.1875 5.54688Z" fill="#252525"/>
</svg>
