<svg width="35" height="35" viewBox="0 0 35 35" fill="none" xmlns="http://www.w3.org/2000/svg">
<path d="M33.9062 31.0667L24.1193 21.2782C25.6965 19.1108 26.5449 16.4986 26.5424 13.8181C26.5424 6.80202 20.8341 1.09375 13.8181 1.09375C6.80202 1.09375 1.09375 6.80202 1.09375 13.8181C1.09375 20.8341 6.80202 26.5424 13.8181 26.5424C16.4986 26.5449 19.1108 25.6965 21.2782 24.1193L31.0667 33.9062L33.9062 31.0667ZM13.8181 22.5236C12.096 22.5238 10.4126 22.0133 8.98077 21.0567C7.5489 20.1001 6.43286 18.7403 5.7738 17.1494C5.11474 15.5585 4.94226 13.8079 5.27817 12.1189C5.61408 10.43 6.44329 8.8786 7.66095 7.66095C8.8786 6.44329 10.43 5.61408 12.1189 5.27817C13.8079 4.94226 15.5585 5.11474 17.1494 5.7738C18.7403 6.43286 20.1001 7.5489 21.0567 8.98077C22.0133 10.4126 22.5238 12.096 22.5236 13.8181C22.5209 16.1261 21.6028 18.3388 19.9708 19.9708C18.3388 21.6028 16.1261 22.5209 13.8181 22.5236Z" fill="#F9F9F9"/>
</svg>
